<?xml version="1.0" encoding="utf-8"?>
<svg width="30" height="30" id="svg2" version="1.1" xmlns="http://www.w3.org/2000/svg">
  <g id="layer1" transform="translate(0,-1022.3622)">
    <path style="color:#000000;fill:#1a1a1a;stroke:#d4d4d4;stroke-width:1.02777779;stroke-opacity:1;marker:none;visibility:visible;display:inline;overflow:visible;enable-background:accumulate" id="path16617-6-6" d="m 29.170673,16.56851 a 14.008413,14.008413 0 1 1 -28.0168263,0 14.008413,14.008413 0 1 1 28.0168263,0 z" transform="matrix(0.97297297,0,0,0.97297297,330.50795,953.63241)"/>
    <path style="fill:#1a1a1a;stroke:#d4d4d4;stroke-width:1px;stroke-linecap:butt;stroke-linejoin:miter;stroke-opacity:1" d="m 345.29648,957.89011 0,11.863 0,0" id="path16623-6-2"/>
    <path style="fill:#1a1a1a;stroke:#d4d4d4;stroke-width:1px;stroke-linecap:butt;stroke-linejoin:miter;stroke-opacity:1" d="m 357.15947,969.75311 -1.70877,0 0,0" id="path16623-4-2-0"/>
    <path style="fill:#1a1a1a;stroke:#d4d4d4;stroke-width:0.99999994px;stroke-linecap:butt;stroke-linejoin:miter;stroke-opacity:1" d="m 345.29648,981.61611 0,-2.0181 0,0" id="path16623-4-3-9-0"/>
    <path style="fill:#1a1a1a;stroke:#d4d4d4;stroke-width:1px;stroke-linecap:butt;stroke-linejoin:miter;stroke-opacity:1" d="m 333.43348,969.75311 11.863,0 0,0" id="path16623-4-3-4-1-0"/>
    <path id="path9518-0-7" d="m 14.999994,1025.9915 -11.2422196,9.9235 2.2484301,0 0,12.8177 6.7453475,0 0,-7.5644 4.651059,0 1.3e-5,7.5644 6.591159,0 0,-12.8177 2.248444,0 -11.242237,-9.9235 0,0 0,0 z" style="font-size:12px;fill:none;stroke:none"/>
    <path style="color: rgb(0, 0, 0); fill-opacity: 1; fill-rule: nonzero; stroke: none; stroke-width: 2; marker: none; visibility: visible; display: inline; overflow: visible; fill: rgb(255, 255, 255);" d="m 21.546875,1025.0497 c -0.71913,0 -1.3125,0.6385 -1.3125,1.4375 l 0,16 -4.03125,0 0,2.25 10.65625,0 0,-2.25 -4.03125,0 0,-16 c 0,-0.799 -0.56212,-1.4375 -1.28125,-1.4375 z m -12.0312502,7.7188 c -4.18393,0 -7.5624996,3.2791 -7.5624996,7.2812 l 0,0.9063 0.9375,0 1.1874996,0 c -0.0124,0.076 -0.0313,0.1698 -0.0313,0.25 l 0,6.9062 c 0,0.799 0.63846,1.4375 1.4375,1.4375 l 7.5000002,0 c 0.79904,0 1.4375,-0.6385 1.4375,-1.4375 l 0,-6.9062 c 0,-0.08 -0.0188,-0.1736 -0.0313,-0.25 l 1.75,0 0.96875,0 0,-0.9063 c 0,-4.0021 -3.40982,-7.2812 -7.5937502,-7.2812 z m 0,1.8437 c 2.8005402,0 5.0277702,1.9555 5.5000002,4.5 l -5.5000002,0 -5.46875,0 c 0.47223,-2.5445 2.66821,-4.5 5.46875,-4.5 z m 6.7187502,11.0938 -1.21875,3.9687 13.03125,0 -1.125,-3.9687 -10.6875,0 z" id="rect24962-0"/>
  </g>
</svg>